<?xml version="1.0" encoding="UTF-8"?>
<svg viewBox="0 0 128 128" xmlns="http://www.w3.org/2000/svg" xmlns:xlink="http://www.w3.org/1999/xlink">
 <defs>
  <linearGradient id="a">
   <stop stop-color="#fefefe" offset="0"/>
   <stop stop-color="#fefefe" stop-opacity="0" offset="1"/>
  </linearGradient>
  <linearGradient id="m" x1="30.899" x2="32.404" y1="34.839" y2="33.612" gradientUnits="userSpaceOnUse">
   <stop stop-color="#6f6f6f" offset="0"/>
   <stop stop-color="#fff" offset=".42085"/>
   <stop stop-color="#21252b" offset="1"/>
  </linearGradient>
  <linearGradient id="l" x1="18.54" x2="16.674" y1="16.92" y2="18.418" gradientUnits="userSpaceOnUse">
   <stop stop-color="#f4f4f4" offset="0"/>
   <stop stop-color="#f4f4f4" stop-opacity="0" offset="1"/>
  </linearGradient>
  <linearGradient id="k" x1="8.4647" x2="9.4726" y1="8.8182" y2="8.1027" gradientUnits="userSpaceOnUse">
   <stop offset="0"/>
   <stop stop-color="#d0d0d0" offset="1"/>
  </linearGradient>
  <linearGradient id="j" x1="17.371" x2="19.578" y1="19.633" y2="17.765" gradientUnits="userSpaceOnUse">
   <stop stop-color="#1b1b1b" offset="0"/>
   <stop stop-color="#fff" offset=".73375"/>
   <stop stop-color="#4d4d4d" offset="1"/>
  </linearGradient>
  <linearGradient id="i" x1="18.095" x2="20.173" y1="20.415" y2="18.283" gradientUnits="userSpaceOnUse">
   <stop stop-color="#0b0b0b" offset="0"/>
   <stop stop-color="#fff" offset=".71745"/>
   <stop stop-color="#070707" offset="1"/>
  </linearGradient>
  <linearGradient id="h" x1="9.5176" x2="20.854" y1="7.372" y2="11.195" gradientUnits="userSpaceOnUse">
   <stop stop-color="#333" offset="0"/>
   <stop stop-color="#e6e6e6" offset=".03115"/>
   <stop stop-color="#fff" offset="1"/>
  </linearGradient>
  <linearGradient id="g" x1="26.259" x2="24.37" y1="25.299" y2="26.928" gradientUnits="userSpaceOnUse">
   <stop stop-color="#fff" offset="0"/>
   <stop stop-color="#fff" stop-opacity="0" offset="1"/>
  </linearGradient>
  <linearGradient id="f" x1="19.849" x2="19.504" y1="20.434" y2="19.957" gradientUnits="userSpaceOnUse">
   <stop stop-color="#0c0c0c" offset="0"/>
   <stop stop-color="#f0f0f0" offset="1"/>
  </linearGradient>
  <linearGradient id="c" x1="16.66" x2="17.09" y1="16.027" y2="16.026" gradientUnits="userSpaceOnUse">
   <stop stop-color="#e6e6e6" stop-opacity="0" offset="0"/>
   <stop offset=".48488"/>
   <stop stop-color="#e6e6e6" stop-opacity="0" offset="1"/>
  </linearGradient>
  <linearGradient id="e" x1="20.714" x2="19.49" y1="19.47" y2="20.386" gradientUnits="userSpaceOnUse" xlink:href="#a"/>
  <linearGradient id="d" x1="19.986" x2="18.696" y1="18.656" y2="19.671" gradientUnits="userSpaceOnUse" xlink:href="#a"/>
  <radialGradient id="b" cx="35.455" cy="39.364" r="18.909" gradientTransform="matrix(1 0 0 .072115 0 36.525)" gradientUnits="userSpaceOnUse">
   <stop offset="0"/>
   <stop stop-color="#504416" stop-opacity="0" offset="1"/>
  </radialGradient>
 </defs>
 <g transform="matrix(-3.6726 0 0 3.6726 130.2 -19.647)" fill-rule="evenodd">
  <path d="m33.31833,36.80633c0,0 .60049.51013.7156.41449s-.29244-.74573-.29244-.74573l-.42316.33125z" fill="#504416"/>
  <path d="m29.177 33.336 0.92026-1.084 0.79114-0.38826 0.03316-0.18309-10.075-12.116c-0.88872 0.42837-1.4528 0.8895-2.0203 1.8485l10.118 11.741 0.23248 0.18185z"/>
  <path d="m29.191 33.305c0.3648-0.64714 0.9522-1.1771 1.7113-1.4862l2.932 4.6084-0.58567 0.49539-4.0576-3.6176z" fill="url(#m)"/>
  <path d="m29.918 32.457 3.624 4.228 0.19-0.16841-3.3635-4.4025-0.45047 0.3429z" fill="#555" opacity=".60714"/>
  <path d="m29.721 32.606 3.7202 4.1516 0.09619-0.07816-3.6096-4.237-0.20675 0.16357z" fill="#fff" opacity=".58929"/>
  <path d="m18.477 21.19-7.8888-9.4165-1.9684-2.586s-0.46316-0.61474-0.61482-1.0688c-0.16301-0.48797-0.33372-1.2111 0.13311-1.5649 0.46969-0.35595 1.0416-0.03282 1.601 0.31783 0.6809 0.51311 1.8912 1.814 1.8912 1.814l3.1649 3.5509 3.2807 3.8211 2.6311 3.1867-2.2301 1.9456z"/>
  <path d="m8.33763,6.49999c.2392-.04572.43022-.03229.69857.06132 .1999.06973.58773.28423.73281.44203 3.20894,3.49024 8.08098,8.92032 10.80394,12.22643-.51283.27311-.72433.42623-1.19478.82141-2.52001-3.10198-7.18459-8.68218-10.13186-12.36179 .14429-.17169.18422-.29735.14602-.55778s-.27509-.38778-.40492-.44646-.27983-.15153-.64977-.18515z" fill="url(#l)" opacity=".71786"/>
  <path d="m8.243 8.6368 1.8141-1.5319 0.4233 0.40314-1.9351 1.5924-0.30236-0.46361z" fill="url(#k)"/>
  <path d="m17.465 19.988-0.25427-0.303c0.49003-0.74439 1.6364-1.6356 2.3095-1.8718l0.21788 0.25975c-0.8875 0.32928-1.9663 1.3138-2.2731 1.9151z" fill="url(#j)"/>
  <path d="m18.16538,20.80592c-.2925-.128-.51038-.3657-.54782-.63583 .53514-.84111 1.51923-1.62049 2.25436-1.88736 .22032-.00839.59322.48852.55812.64169-.9692.37207-1.82465,1.26986-2.26466,1.88149z" fill="url(#i)"/>
  <path d="m9.50304,7.81751c.0212-.11316.03846-.14901.1229-.21531 .08891-.06982.11367-.10274.24827-.19 .06755-.04379.24054-.01318.30354.04592 .82419.77307 2.96407,3.05919 2.96407,3.05919l3.13613,3.67257c0,0 .5079.64979.9041,1.12398 .11854.17294.15684.53219.07069.66102s-.35904.16299-.62279.02675-5.43659-5.99253-7.12692-8.18412z" fill="#b5b5b5"/>
  <path d="m9.55086,7.80197c1.44909,1.70584 5.81926,6.67676 5.81926,6.67676s.83438.93443 1.23705,1.30971c.26347.19951.44004.22269.57774.08244 .13307-.13554.02478-.48507-.0404-.56685-1.64945-2.06951-5.09085-5.87904-6.92435-7.84124-.07503-.0803-.29019-.11285-.36428-.04768-.09555.08404-.40652.26739-.30502.38687z" fill="url(#h)"/>
  <path d="m19.741 20.64c0.30343-0.32526 0.74896-0.65542 1.1091-0.80163l9.7803 11.743-0.73606 0.43298-10.153-11.374z" fill="url(#g)"/>
  <path d="m18.44916,21.14695c.78826-1.12073 1.71214-1.62983 2.25535-1.90691 .13118.03035.17643.26784.18919.38269-.69811.32097-1.57624.97967-2.07381,1.79012-.14813-.05191-.40358-.15621-.37073-.2659z" fill="url(#f)"/>
  <path d="m19.97495,19.71277c.28826-.2096.45161-.30105.72085-.4412 .1369.0484.13961.24073.12868.33595-.32916.17525-.74177.44929-.96511.61584-.08587.01307.04095-.3709.11558-.51059z" fill="url(#e)"/>
  <path d="m18.989,18.86644c.28722-.22626.56769-.42905.88955-.54289 .20721.0484.49824.47318.48732.5684-.36432.1401-1.21019.72084-1.43354.88739l.05667-.91289z" fill="url(#d)"/>
  <path d="m16.76538,15.90589-.10577.10775c.1242.08146.33554.10218.48468.04076l-.10577-.0938c-.05849.00715-.19121-.03191-.27314-.0547z" fill="url(#c)" opacity=".825"/>
 </g>
 <path d="m112.25 105.85c-13.153-0.38937-28.429-0.21957-41.591 0.09616l-8.0176 0.19232c-4.6404 0.11131-10.523 0.16409-10.523 0.62503 0 0.48221 22.898 0.7212 25.055 0.7212 9.677 0 20.712 0.0609 30.066 0.2404 6.0268 0.11565 17.282 0.4573 11.024 1.0578-6.8571 0.65793-24.464 0.13438-32.07-0.04807l-8.0176-0.19232c-9.8778-0.23694-27.839-0.40603-35.578 0.33655-5.2973 0.50827-5.5954 1.0798 1.5033 1.2501 21.147 0.50725 44.909-0.26509 69.152 0.43272 5.6512 0.16266 8.7443 0.77886 7.5165 1.2501-2.0881 0.80138-16.704 0.6464-21.547 0.33656-13.537-0.86592-35.103-1.4424-51.112-1.4424-6.613 0-11.16 0.62891-12.528 1.1539-1.9903 0.76386 21.749 0.86544 25.556 0.86544 13.924 0 31.633-0.56342 45.099-0.2404 4.2584 0.10214 10.796 0.91783 12.528 1.2501 2.867 0.55018-8.3288 1.3791-11.525 1.6347-5.5449 0.44335-12.268 0.94335-19.042 1.1058-4.5758 0.10976-10.764 0-15.534 0h-52.616c-2.5348 0-5.1628-0.0397-7.5165-0.09616-2.5254-0.06057-4.6194 0.05333-6.5143 0.14424" fill="none" stroke="#000" stroke-width=".27561"/>
 <path transform="matrix(2.7246 -.41536 .30459 1.998 -50.457 44.313)" d="m54.364 39.364a18.909 1.3636 0 1 1 -37.818 0 18.909 1.3636 0 1 1 37.818 0z" fill="url(#b)" opacity=".62857"/>
</svg>
